{"title":"Brake.2012.VODRip-PA","uid":7042005,"size":837701632,"categoryP":"video","categoryS":"movies","magnet":"?xt=urn:btih:331fdf5bc91ae57e0c72fa98e06dbaabd28bf1c6&amp;dn=Brake.2012.VODRip-PA&amp;tr=udp%3A%2F%2Ftracker.openbittorrent.com%3A80&amp;tr=udp%3A%2F%2Fopen.demonii.com%3A1337&amp;tr=udp%3A%2F%2Ftracker.coppersurfer.tk%3A6969&amp;tr=udp%3A%2F%2Fexodus.desync.com%3A6969","seeders":0,"leechers":0,"uploader":"HeroMaster","files":-1,"time":1329581114,"description":"Brake.2012.VODRip-PA\n\nIMDB: http://www.imdb.com/title/tt1990181/\n\nFormat                           : AVI\nFormat/Info                      : Audio Video Interleave\nFile size                        : 799 MiB\nDuration                         : 1h 31mn\nOverall bit rate                 : 1 223 Kbps\nWriting application              : VirtualDubMod 1.5.10.2 (build 2542/release)\nWriting library                  : VirtualDubMod build 2542/release\n\nVideo\nID                               : 0\nFormat                           : MPEG-4 Visual\nFormat profile                   : Advanced Simple@L5\nFormat settings, BVOP            : Yes\nFormat settings, QPel            : No\nFormat settings, GMC             : No warppoints\nFormat settings, Matrix          : Default (H.263)\nMuxing mode                      : Packed bitstream\nCodec ID                         : XVID\nCodec ID/Hint                    : XviD\nDuration                         : 1h 31mn\nBit rate                         : 1 084 Kbps\nWidth                            : 704 pixels\nHeight                           : 396 pixels\nDisplay aspect ratio             : 16:9\nFrame rate                       : 29.970 fps\nColor space                      : YUV\nChroma subsampling               : 4:2:0\nBit depth                        : 8 bits\nScan type                        : Progressive\nBits/(Pixel*Frame)               : 0.130\nStream size                      : 708 MiB (89%)\nWriting library                  : XviD 62\n\nAudio\nID                               : 1\nFormat                           : MPEG Audio\nFormat version                   : Version 1\nFormat profile                   : Layer 3\nMode                             : Joint stereo\nMode extension                   : MS Stereo\nCodec ID                         : 55\nCodec ID/Hint                    : MP3\nDuration                         : 1h 31mn\nBit rate mode                    : Constant\nBit rate                         : 128 Kbps\nChannel(s)                       : 2 channels\nSampling rate                    : 44.1 KHz\nStream size                      : 83.6 MiB (10%)\nAlignment                        : Split accross interleaves\nInterleave, duration             : 33 ms (1.00 video frame)\nInterleave, preload duration     : 500 ms\nWriting library                  : LAME3.98.2\n\nsource: Own ....Thanks mate\nOff Internal now\n\n\nPoster:\n\n &lt;a href=&quot;\nhttp://i.imgur.com/uxeeO.jpg&quot; rel=&quot;nofollow&quot; target=&quot;_NEW&quot;&gt;\nhttp://i.imgur.com/uxeeO.jpg&lt;/a&gt;\n\n\nScreens:\n\n &lt;a href=&quot;\nhttp://i.imgur.com/qCGpf.jpg&quot; rel=&quot;nofollow&quot; target=&quot;_NEW&quot;&gt;\nhttp://i.imgur.com/qCGpf.jpg&lt;/a&gt;\n\n\nENJOY!","torrent":{"xt":"urn:btih:331fdf5bc91ae57e0c72fa98e06dbaabd28bf1c6","amp;dn":"Brake.2012.VODRip-PA","amp;tr":["udp%3A%2F%2Ftracker.openbittorrent.com%3A80","udp%3A%2F%2Fopen.demonii.com%3A1337","udp%3A%2F%2Ftracker.coppersurfer.tk%3A6969","udp%3A%2F%2Fexodus.desync.com%3A6969"],"infoHash":"331fdf5bc91ae57e0c72fa98e06dbaabd28bf1c6","infoHashBuffer":{"type":"Buffer","data":[51,31,223,91,201,26,229,126,12,114,250,152,224,109,186,171,210,139,241,198]},"announce":[],"urlList":[]}}